<svg width="30" height="30" viewBox="0 0 30 30" fill="none" xmlns="http://www.w3.org/2000/svg">
<g clip-path="url(#clip0_24_338)">
<path d="M29.5898 15.0584C29.5898 17.0975 29.5488 19.1424 29.6016 21.1815C29.6895 24.7909 27.4219 27.5799 24.5332 28.8221C23.373 29.3202 22.1543 29.5838 20.8945 29.5838C16.9512 29.5897 13.002 29.6424 9.05859 29.5662C6.08789 29.5077 3.64453 28.2655 1.89258 25.8162C0.972656 24.5272 0.533203 23.0623 0.533203 21.4744C0.533203 17.2733 0.533203 13.078 0.533203 8.87679C0.533203 5.44906 2.20312 3.05257 5.16797 1.49398C6.45703 0.820153 7.85742 0.533044 9.31641 0.527184C13.1426 0.527184 16.9746 0.503747 20.8008 0.538903C23.7715 0.562341 26.25 1.69906 28.0781 4.08968C29.0977 5.42562 29.5898 6.96078 29.5898 8.64828C29.5898 10.7811 29.5898 12.9198 29.5898 15.0584ZM2.69531 15.0584C2.69531 17.2088 2.69531 19.3534 2.69531 21.5037C2.69531 22.4647 2.91797 23.367 3.41602 24.1815C4.72266 26.3202 6.69727 27.3631 9.14648 27.4041C13.0781 27.4627 17.0156 27.4276 20.9531 27.4159C21.9199 27.4159 22.8574 27.2166 23.7305 26.8006C26.1094 25.6639 27.4395 23.8534 27.4277 21.1346C27.4043 16.9745 27.4219 12.8143 27.4219 8.65414C27.4219 7.4764 27.0879 6.39828 26.3906 5.44906C25.043 3.62679 23.1797 2.73031 20.9531 2.70687C17.0273 2.66 13.1016 2.68929 9.17578 2.69515C8.33789 2.69515 7.5293 2.86507 6.74414 3.15804C4.58789 3.96078 2.58398 5.99398 2.67773 8.98812C2.74805 11.0155 2.69531 13.037 2.69531 15.0584Z" fill="#0A4551"/>
<path d="M15.0938 21.2695C11.3145 21.2695 8.26759 18.2578 8.26173 14.5078C8.25587 10.8164 11.3262 7.79298 15.082 7.79298C18.8496 7.78712 21.9082 10.8047 21.9141 14.5254C21.9141 18.2402 18.8613 21.2637 15.0938 21.2695ZM15.0938 19.1016C17.666 19.1016 19.752 17.0449 19.7461 14.5137C19.7402 12.0059 17.6543 9.95509 15.0938 9.95509C12.5215 9.95509 10.4238 12 10.4238 14.5254C10.4297 17.0566 12.5215 19.1074 15.0938 19.1016Z" fill="#0A4551"/>
<path d="M22.7051 5.74219C23.4961 5.74219 24.1407 6.41602 24.1407 7.24219C24.1348 8.06836 23.4844 8.73633 22.6934 8.73047C21.9141 8.72461 21.2754 8.05664 21.2754 7.24805C21.2696 6.42187 21.9141 5.74219 22.7051 5.74219Z" fill="#0A4551"/>
</g>
<defs>
<clipPath id="clip0_24_338">
<rect width="30" height="30" fill="white"/>
</clipPath>
</defs>
</svg>
