<svg width="40" height="40" viewBox="0 0 40 40" fill="none" xmlns="http://www.w3.org/2000/svg">
<path d="M32.5468 16.6978H25.674C25.7328 16.3008 25.7623 15.8996 25.7623 15.4978V7.80448C25.76 5.73532 24.9741 3.75158 23.5768 2.28846C22.1796 0.825347 20.2851 0.00234012 18.3091 0H7.45315C5.47714 0.0023429 3.5827 0.825351 2.18545 2.28847C0.788193 3.75158 0.00223478 5.73532 0 7.80448V15.4978C0.00223744 17.5669 0.788196 19.5506 2.18545 21.0138C3.5827 22.4769 5.47714 23.2999 7.45315 23.3022H14.3277C14.2681 23.6992 14.238 24.1004 14.2377 24.5022V32.1956C14.2399 34.2647 15.0259 36.2485 16.4231 37.7116C17.8204 39.1747 19.7148 39.9977 21.6908 40H32.5469C34.5229 39.9977 36.4173 39.1747 37.8146 37.7116C39.2118 36.2485 39.9978 34.2647 40 32.1956V24.5022C39.9978 22.4331 39.2118 20.4494 37.8145 18.9863C36.4173 17.5232 34.5228 16.7002 32.5468 16.6978ZM1.60632 15.4978V7.80448C1.60808 6.18128 2.22465 4.62508 3.32076 3.47731C4.41687 2.32954 5.90302 1.68392 7.45315 1.68209H18.3091C19.8592 1.68392 21.3454 2.32954 22.4415 3.47732C23.5376 4.62509 24.1542 6.18128 24.1559 7.80448V15.4978C24.1542 17.121 23.5376 18.6771 22.4415 19.8249C21.3454 20.9727 19.8592 21.6183 18.3091 21.6201H7.45315C5.90302 21.6183 4.41688 20.9727 3.32076 19.8249C2.22465 18.6771 1.60808 17.121 1.60632 15.4978ZM33.1492 26.3929H31.1914C30.6572 28.3902 29.6636 30.22 28.2977 31.7221C28.9824 32.2953 29.7228 32.7914 30.5067 33.2024L31.5994 33.7769C31.6936 33.8265 31.7776 33.895 31.8466 33.9785C31.9156 34.0621 31.9682 34.1591 32.0014 34.2639C32.0345 34.3688 32.0477 34.4794 32.04 34.5896C32.0324 34.6997 32.0041 34.8072 31.9567 34.9059C31.9094 35.0046 31.844 35.0926 31.7642 35.1648C31.6844 35.2371 31.5918 35.2921 31.4916 35.3269C31.3915 35.3616 31.2858 35.3754 31.1806 35.3674C31.0754 35.3593 30.9728 35.3297 30.8785 35.2801L29.7858 34.7056C28.8327 34.2069 27.9367 33.5965 27.1152 32.886C26.2963 33.5966 25.4027 34.207 24.4517 34.7056L23.3591 35.2801C23.1687 35.3802 22.9482 35.397 22.746 35.3268C22.5438 35.2567 22.3765 35.1052 22.2809 34.9059C22.1853 34.7066 22.1692 34.4756 22.2362 34.2639C22.3033 34.0521 22.4479 33.8769 22.6382 33.7768L23.7309 33.2023C24.5129 32.7921 25.2513 32.2965 25.9339 31.7238C25.125 30.8257 24.4421 29.8118 23.9057 28.7125C23.8578 28.614 23.8289 28.5067 23.8206 28.3966C23.8123 28.2865 23.8248 28.1758 23.8574 28.0707C23.89 27.9657 23.942 27.8684 24.0105 27.7844C24.079 27.7004 24.1626 27.6314 24.2566 27.5812C24.3506 27.5311 24.4531 27.5008 24.5582 27.4921C24.6634 27.4835 24.7691 27.4966 24.8695 27.5307C24.9698 27.5648 25.0627 27.6193 25.1429 27.691C25.2231 27.7627 25.289 27.8503 25.3369 27.9487C25.8069 28.9112 26.4058 29.7984 27.1154 30.5835C28.2027 29.3908 29.0223 27.9592 29.5144 26.3929H21.0884C20.8753 26.3929 20.6711 26.3043 20.5204 26.1466C20.3698 25.9888 20.2852 25.7749 20.2852 25.5519C20.2852 25.3288 20.3698 25.1149 20.5204 24.9572C20.6711 24.7994 20.8753 24.7108 21.0884 24.7108H26.3156V22.1694C26.3156 21.9463 26.4003 21.7324 26.5509 21.5746C26.7015 21.4169 26.9058 21.3283 27.1188 21.3283C27.3319 21.3283 27.5361 21.4169 27.6868 21.5746C27.8374 21.7324 27.922 21.9463 27.922 22.1694V24.7108H33.1492C33.3622 24.7108 33.5665 24.7994 33.7171 24.9572C33.8678 25.1149 33.9524 25.3288 33.9524 25.5519C33.9524 25.7749 33.8678 25.9888 33.7171 26.1466C33.5665 26.3043 33.3622 26.3929 33.1492 26.3929Z" fill="white"/>
<path d="M14.3188 7.1328C14.0565 6.45351 13.5059 6.03149 12.8818 6.03149C12.2577 6.03149 11.707 6.45351 11.4447 7.13285L7.97748 16.1143C7.93795 16.2167 7.91807 16.3263 7.91897 16.4367C7.91988 16.5472 7.94155 16.6564 7.98275 16.758C8.02394 16.8597 8.08386 16.9519 8.15908 17.0293C8.2343 17.1067 8.32335 17.1679 8.42114 17.2093C8.51892 17.2507 8.62354 17.2715 8.72901 17.2705C8.83449 17.2696 8.93875 17.2469 9.03585 17.2038C9.13294 17.1606 9.22098 17.0979 9.29492 17.0191C9.36886 16.9404 9.42726 16.8471 9.46679 16.7447L10.7667 13.3775H14.9968L16.2967 16.7447C16.336 16.8474 16.3943 16.941 16.4682 17.0201C16.5421 17.0992 16.6302 17.1622 16.7274 17.2056C16.8246 17.2489 16.9291 17.2718 17.0347 17.2728C17.1404 17.2739 17.2452 17.253 17.3432 17.2116C17.4412 17.1701 17.5304 17.1088 17.6057 17.0312C17.681 16.9535 17.7409 16.8611 17.7821 16.7592C17.8232 16.6572 17.8447 16.5478 17.8454 16.4372C17.8461 16.3265 17.8259 16.2168 17.786 16.1143L14.3188 7.1328ZM11.416 11.6954L12.8818 7.89865L14.3475 11.6954H11.416Z" fill="white"/>
</svg>
