<svg width="43" height="29" viewBox="0 0 43 29" fill="none" xmlns="http://www.w3.org/2000/svg">
<path d="M2.37501 28.5C1.70209 28.5 1.13843 28.272 0.684008 27.816C0.229592 27.36 0.00159152 26.7963 8.18965e-06 26.125C-0.00157514 25.4537 0.226425 24.89 0.684008 24.434C1.14159 23.978 1.70526 23.75 2.37501 23.75H40.375C41.0479 23.75 41.6124 23.978 42.0684 24.434C42.5244 24.89 42.7516 25.4537 42.75 26.125C42.7484 26.7963 42.5204 27.3608 42.066 27.8184C41.6116 28.276 41.0479 28.5032 40.375 28.5H2.37501ZM2.37501 16.625C1.70209 16.625 1.13843 16.397 0.684008 15.941C0.229592 15.485 0.00159152 14.9213 8.18965e-06 14.25C-0.00157514 13.5787 0.226425 13.015 0.684008 12.559C1.14159 12.103 1.70526 11.875 2.37501 11.875H40.375C41.0479 11.875 41.6124 12.103 42.0684 12.559C42.5244 13.015 42.7516 13.5787 42.75 14.25C42.7484 14.9213 42.5204 15.4858 42.066 15.9434C41.6116 16.401 41.0479 16.6282 40.375 16.625H2.37501ZM2.37501 4.75C1.70209 4.75 1.13843 4.522 0.684008 4.066C0.229592 3.61 0.00159152 3.04633 8.18965e-06 2.375C-0.00157514 1.70367 0.226425 1.14 0.684008 0.684C1.14159 0.228 1.70526 0 2.37501 0H40.375C41.0479 0 41.6124 0.228 42.0684 0.684C42.5244 1.14 42.7516 1.70367 42.75 2.375C42.7484 3.04633 42.5204 3.61079 42.066 4.06837C41.6116 4.52596 41.0479 4.75317 40.375 4.75H2.37501Z" fill="white"/>
</svg>
