<svg width="30" height="30" viewBox="0 0 30 30" fill="none" xmlns="http://www.w3.org/2000/svg">
<path d="M15.2579 26.3084C11.9122 26.2029 8.73055 26.1209 5.5489 25.9979C4.86336 25.9686 4.16609 25.8631 3.49812 25.7049C2.24422 25.4119 1.37703 24.6561 0.931717 23.4197C0.574295 22.4237 0.445389 21.3983 0.351639 20.3553C0.146561 17.9061 0.146561 15.4569 0.24617 13.0076C0.304764 11.6248 0.33992 10.2303 0.709061 8.8885C0.931717 8.08576 1.20125 7.30061 1.85164 6.72053C2.53719 6.10529 3.33992 5.73615 4.25398 5.69514C6.7618 5.57209 9.26375 5.41975 11.7716 5.39631C15.1466 5.36115 18.5274 5.40803 21.9024 5.47248C23.3614 5.50178 24.8321 5.57795 26.2794 5.76545C27.6036 5.94123 28.5938 6.67951 29.1212 7.96857C29.5255 8.95881 29.6778 9.99592 29.7657 11.0506C29.9942 13.6932 30.0001 16.3358 29.8712 18.9783C29.8067 20.3201 29.7423 21.6678 29.3614 22.9744C28.9278 24.4744 28.0079 25.4647 26.4727 25.8045C25.8751 25.9334 25.254 25.9803 24.6446 26.0037C21.4571 26.1151 18.2755 26.2147 15.2579 26.3084ZM12.0177 19.6463C14.6895 18.2635 17.3321 16.8924 20.0274 15.492C17.338 14.0858 14.6954 12.7088 12.0177 11.3084C12.0177 14.1033 12.0177 16.8514 12.0177 19.6463Z" fill="#0A4551"/>
</svg>
